<?xml version="1.0" encoding="UTF-8" standalone="no"?>
<!-- Created with Inkscape (http://www.inkscape.org/) -->

<svg
   version="1.1"
   id="svg1611"
   xml:space="preserve"
   width="682.66669"
   height="682.66669"
   viewBox="0 0 682.66669 682.66669"
   xmlns="http://www.w3.org/2000/svg"
   xmlns:svg="http://www.w3.org/2000/svg"><defs
     id="defs1615"><clipPath
       clipPathUnits="userSpaceOnUse"
       id="clipPath1625"><path
         d="M 0,512 H 512 V 0 H 0 Z"
         id="path1623" /></clipPath></defs><g
     id="g1617"
     transform="matrix(1.3333333,0,0,-1.3333333,0,682.66667)"><g
       id="g1619"><g
         id="g1621"
         clip-path="url(#clipPath1625)"><g
           id="g1627"
           transform="translate(173.2998,180.168)"><path
             d="m 0,0 v -52.626 c 0,-15.619 12.662,-28.281 28.281,-28.281 h 168.391 c 15.619,0 28.281,12.662 28.281,28.281 v 346.177 c 0,15.619 -12.662,28.281 -28.281,28.281 H 28.281 C 12.662,321.832 0,309.17 0,293.551 V 87.995"
             style="fill:none;stroke:#000000;stroke-width:20;stroke-linecap:round;stroke-linejoin:round;stroke-miterlimit:10;stroke-dasharray:none;stroke-opacity:1"
             id="path1629" /></g><g
           id="g1631"
           transform="translate(430.4414,328.5864)"><path
             d="m 0,0 h -8.682 c -12.982,0 -23.506,10.524 -23.506,23.507 v 13.842 c 0,12.983 10.524,23.508 23.506,23.508 H 0 c 16.806,0 30.429,-13.624 30.429,-30.429 C 30.429,13.623 16.806,0 0,0 Z"
             style="fill:none;stroke:#000000;stroke-width:20;stroke-linecap:round;stroke-linejoin:round;stroke-miterlimit:10;stroke-dasharray:none;stroke-opacity:1"
             id="path1633" /></g><g
           id="g1635"
           transform="translate(430.4414,267.7295)"><path
             d="M 0,0 H -8.682 C -21.664,0 -32.188,10.524 -32.188,23.507 V 37.35 c 0,12.982 10.524,23.507 23.506,23.507 H 0 c 16.806,0 30.429,-13.624 30.429,-30.429 C 30.429,13.623 16.806,0 0,0 Z"
             style="fill:none;stroke:#000000;stroke-width:20;stroke-linecap:round;stroke-linejoin:round;stroke-miterlimit:10;stroke-dasharray:none;stroke-opacity:1"
             id="path1637" /></g><g
           id="g1639"
           transform="translate(430.4414,206.8726)"><path
             d="M 0,0 H -8.682 C -21.664,0 -32.188,10.524 -32.188,23.507 V 37.35 c 0,12.982 10.524,23.507 23.506,23.507 H 0 c 16.806,0 30.429,-13.624 30.429,-30.428 V 30.428 C 30.429,13.623 16.806,0 0,0 Z"
             style="fill:none;stroke:#000000;stroke-width:20;stroke-linecap:round;stroke-linejoin:round;stroke-miterlimit:10;stroke-dasharray:none;stroke-opacity:1"
             id="path1641" /></g><g
           id="g1643"
           transform="translate(430.4414,146.0156)"><path
             d="M 0,0 H -8.682 C -21.664,0 -32.188,10.525 -32.188,23.507 V 37.35 c 0,12.983 10.524,23.507 23.506,23.507 H 0 c 16.806,0 30.429,-13.623 30.429,-30.428 C 30.429,13.624 16.806,0 0,0 Z"
             style="fill:none;stroke:#000000;stroke-width:20;stroke-linecap:round;stroke-linejoin:round;stroke-miterlimit:10;stroke-dasharray:none;stroke-opacity:1"
             id="path1645" /></g><g
           id="g1647"
           transform="translate(173.2998,268.1631)"><path
             d="m 0,0 v 70.407 c 0,33.4 -19.819,61.25 -51.399,67.48 -6.941,1.36 -13.38,-4.02 -13.38,-11.09 V 4.12 c 0,-16.527 -2.959,-32.925 -8.83,-48.373 -8.052,-21.188 -18.701,-56.097 -18.701,-92.53 l -29.86,-40.26 v -81.12 H 34.8 l 36.9,43.82 c 0,0 73.89,5.81 107.25,45.44 H 28.28 c -15.618,0 -28.28,12.661 -28.28,28.28 v 52.628"
             style="fill:none;stroke:#000000;stroke-width:20;stroke-linecap:round;stroke-linejoin:round;stroke-miterlimit:10;stroke-dasharray:none;stroke-opacity:1"
             id="path1649" /></g><g
           id="g1651"
           transform="translate(285.8672,461.0532)"><path
             d="M 0,0 V 0 C -15.87,0 -28.735,12.866 -28.735,28.736 V 40.947 H 28.736 V 28.736 C 28.736,12.866 15.871,0 0,0 Z"
             style="fill:none;stroke:#000000;stroke-width:20;stroke-linecap:round;stroke-linejoin:round;stroke-miterlimit:10;stroke-dasharray:none;stroke-opacity:1"
             id="path1653" /></g><g
           id="g1655"
           transform="translate(309.6074,166.2939)"><path
             d="m 0,0 h -47.769 c -13.575,0 -24.579,11.004 -24.579,24.579 0,13.574 11.004,24.578 24.579,24.578 H 0 c 13.574,0 24.579,-11.004 24.579,-24.578 C 24.579,11.004 13.574,0 0,0 Z"
             style="fill:none;stroke:#000000;stroke-width:20;stroke-linecap:round;stroke-linejoin:round;stroke-miterlimit:10;stroke-dasharray:none;stroke-opacity:1"
             id="path1657" /></g><g
           id="g1659"
           transform="translate(226.6934,373.5425)"><path
             d="M 0,0 -10,-94.287 H 128.059 L 118.059,0 Z"
             style="fill:none;stroke:#000000;stroke-width:20;stroke-linecap:round;stroke-linejoin:round;stroke-miterlimit:10;stroke-dasharray:none;stroke-opacity:1"
             id="path1661" /></g><g
           id="g1663"
           transform="translate(308.5312,353.5991)"><path
             d="m 0,0 v 37.334 c 0,12.517 -10.146,22.664 -22.664,22.664 -12.517,0 -22.663,-10.147 -22.663,-22.664 V 0"
             style="fill:none;stroke:#000000;stroke-width:20;stroke-linecap:round;stroke-linejoin:round;stroke-miterlimit:10;stroke-dasharray:none;stroke-opacity:1"
             id="path1665" /></g><g
           id="g1667"
           transform="translate(173.3955,224.7578)"><path
             d="M 0,0 V 0"
             style="fill:none;stroke:#000000;stroke-width:20;stroke-linecap:round;stroke-linejoin:round;stroke-miterlimit:10;stroke-dasharray:none;stroke-opacity:1"
             id="path1669" /></g></g></g></g></svg>
